<?xml version="1.0" encoding="UTF-8"?>
<svg id="Capa_1" data-name="Capa 1" xmlns="http://www.w3.org/2000/svg" viewBox="0 0 640 448">
  <path d="M64,64C64,28.7,92.7,0,128,0h384c35.3,0,64,28.7,64,64v256h-64V64H128v256h-64V64ZM0,371.2c0-10.6,8.6-19.2,19.2-19.2h601.6c10.6,0,19.2,8.6,19.2,19.2,0,42.4-34.4,76.8-76.8,76.8H76.8c-42.4,0-76.8-34.4-76.8-76.8ZM281,177l-31,31,31,31c9.4,9.4,9.4,24.6,0,33.9s-24.6,9.4-33.9,0l-48-48c-9.4-9.4-9.4-24.6,0-33.9l48-48c9.4-9.4,24.6-9.4,33.9,0s9.4,24.6,0,33.9v.1ZM393,143l48,48c9.4,9.4,9.4,24.6,0,33.9l-48,48c-9.4,9.4-24.6,9.4-33.9,0s-9.4-24.6,0-33.9l31-31-31-31c-9.4-9.4-9.4-24.6,0-33.9s24.6-9.4,33.9,0v-.1Z" style="fill: #403a5f;"/>
</svg>